<svg xmlns="http://www.w3.org/2000/svg" viewBox="0 0 221.29 288.02"><defs><style>.cls-1{fill:#e60014;}.cls-2{fill:#d2be64;}</style></defs><g id="レイヤー_2" data-name="レイヤー 2"><g id="design"><path class="cls-1" d="M205.73,163.75l-28.9,28.9a30.87,30.87,0,0,1-43.65,0L3.3,62.76a11,11,0,0,1,0-15.56L14.4,36.09a56,56,0,0,1,79.24,0L205.73,148.18A11,11,0,0,1,205.73,163.75Z"/><path class="cls-2" d="M127.73,36.09,15.64,148.18a11,11,0,0,0,0,15.57L32.1,180.2,188.49,23.81A56,56,0,0,0,127.73,36.09Z"/><path class="cls-2" d="M218.07,47.2,207,36.09a58.2,58.2,0,0,0-5.73-5L42.12,190.23l2.42,2.42a30.86,30.86,0,0,0,43.64,0L218.07,62.76A11,11,0,0,0,218.07,47.2Z"/><circle class="cls-2" cx="96.82" cy="8.02" r="8.02"/><circle class="cls-2" cx="124.55" cy="8.02" r="8.02"/><path d="M107.32,254.22H100.7v-5.74h6.62v-1.24c0-11.62,9-13.54,14.46-13.61v6.61c-2.48.07-7.09.62-7.09,7.35v.89h7.09v5.74h-7.09V287h-7.37Z"/><polygon points="144.76 254.22 137.82 254.22 137.82 248.48 144.76 248.48 144.76 234.6 152.13 234.6 152.13 248.48 159.57 248.48 159.57 254.22 152.13 254.22 152.13 287.03 144.76 287.03 144.76 254.22"/><polygon points="189.87 259.68 173.15 234.59 182.64 234.59 194.69 253.51 206.66 234.59 216.09 234.59 199.58 259.82 217.65 287.03 208.15 287.03 194.41 265.7 181.02 287.03 171.73 287.03 189.87 259.68"/><path d="M30,260.6v6.8H46.05a16.61,16.61,0,0,1-6.44,9.35,19.68,19.68,0,0,1-12.12,3.9c-9.85,0-19.2-7.37-19.2-20,0-12.19,9.28-19.7,19.2-19.7a18.57,18.57,0,0,1,11.05,3.54A21,21,0,0,1,42.2,248l6-5.52a28.4,28.4,0,0,0-20.56-8.85C12.4,233.6,0,245,0,260.67A27.1,27.1,0,0,0,27.56,288c9.92,0,20.4-5.24,25.22-15.66,1.77-3.9,1.75-8.43,1.75-11.76Z"/><path d="M72.67,248.48H80V287H72.67Z"/><path d="M72.71,234.61l7.37,0,0,7.26-7.37,0Z"/></g></g></svg>