<svg xmlns="http://www.w3.org/2000/svg" viewBox="0 0 157.58 52.03"><defs><style>.cls-1{fill:#e60014;}.cls-2{fill:#d2be64;}</style></defs><g id="レイヤー_2" data-name="レイヤー 2"><g id="design"><path class="cls-1" d="M53.05,42.24,45.6,49.7a8,8,0,0,1-11.26,0L.83,16.19a2.83,2.83,0,0,1,0-4L3.7,9.31a14.46,14.46,0,0,1,20.44,0L53.05,38.23A2.83,2.83,0,0,1,53.05,42.24Z"/><path class="cls-2" d="M32.93,9.31,4,38.23a2.83,2.83,0,0,0,0,4l4.24,4.25L48.61,6.14A14.47,14.47,0,0,0,32.93,9.31Z"/><path class="cls-2" d="M56.24,12.18,53.37,9.31A13.61,13.61,0,0,0,51.9,8l-41,41.05.62.62a8,8,0,0,0,11.26,0L56.24,16.19A2.83,2.83,0,0,0,56.24,12.18Z"/><circle class="cls-2" cx="24.96" cy="2.07" r="2.07"/><circle class="cls-2" cx="32.11" cy="2.07" r="2.07"/><path d="M110.79,25.73H108V23.3h2.8v-.53c0-4.92,3.82-5.74,6.13-5.77v2.81c-1,0-3,.26-3,3.11v.38h3v2.43h-3V39.65h-3.13Z"/><polygon points="126.67 25.73 123.73 25.73 123.73 23.3 126.67 23.3 126.67 17.41 129.79 17.41 129.79 23.3 132.95 23.3 132.95 25.73 129.79 25.73 129.79 39.65 126.67 39.65 126.67 25.73"/><polygon points="145.8 28.05 138.71 17.41 142.73 17.41 147.84 25.43 152.92 17.41 156.92 17.41 149.92 28.11 157.58 39.65 153.55 39.65 147.72 30.6 142.04 39.65 138.11 39.65 145.8 28.05"/><path d="M78,28.44v2.88h6.81a7,7,0,0,1-2.73,4,8.34,8.34,0,0,1-5.14,1.65,8.09,8.09,0,0,1-8.14-8.47,8.08,8.08,0,0,1,8.14-8.35,7.88,7.88,0,0,1,4.69,1.5,8.56,8.56,0,0,1,1.55,1.46l2.54-2.34A12,12,0,0,0,77,17a11.54,11.54,0,1,0,0,23.08,11.7,11.7,0,0,0,10.69-6.64,12,12,0,0,0,.75-5Z"/><path d="M96.1,23.3h3.12V39.65H96.1Z"/><path d="M96.12,17.42h3.12v3.08H96.12Z"/></g></g></svg>